<svg width="45" height="45" viewBox="0 0 45 45" fill="none" xmlns="http://www.w3.org/2000/svg">
<mask id="mask0" mask-type="alpha" maskUnits="userSpaceOnUse" x="0" y="0" width="45" height="45">
<rect width="45" height="45" fill="#C4C4C4"/>
</mask>
<g mask="url(#mask0)">
<path fill-rule="evenodd" clip-rule="evenodd" d="M38.6785 15.2931C38.6785 26.3073 30.2935 39.0083 14.9632 39.0083V39.0018C10.4342 39.0079 5.99916 37.7104 2.1875 35.2643C2.84596 35.3432 3.50847 35.3833 4.17162 35.3846C7.92547 35.3884 11.5714 34.1292 14.5229 31.8096C12.7835 31.7769 11.0978 31.2014 9.70161 30.1636C8.30541 29.1258 7.26848 27.6775 6.73587 26.0213C7.98482 26.2619 9.27229 26.213 10.4994 25.8783C8.61312 25.4973 6.91674 24.4755 5.69796 22.9863C4.47917 21.4971 3.81303 19.6322 3.8125 17.7078V17.6022C4.97158 18.2483 6.26908 18.6062 7.5955 18.6455C5.83079 17.4671 4.58154 15.6604 4.10212 13.5932C3.6227 11.5261 3.94915 9.35398 5.015 7.51909C7.10773 10.0938 9.71853 12.1997 12.6779 13.6999C15.6373 15.2002 18.8791 16.0613 22.1929 16.2275C21.7781 14.4406 21.9639 12.5669 22.7213 10.8962C23.4788 9.22557 24.7657 7.85112 26.383 6.98557C28.0003 6.12002 29.8578 5.81163 31.668 6.10812C33.4783 6.40461 35.1403 7.28945 36.397 8.62571C38.2635 8.25767 40.0535 7.57345 41.6896 6.60259C41.0674 8.53272 39.7652 10.1711 38.0252 11.2127C39.6776 11.0174 41.2913 10.5754 42.8125 9.90134C41.6935 11.5749 40.2854 13.0358 38.6541 14.2157C38.6785 14.5732 38.6785 14.9322 38.6785 15.2929V15.2931Z" fill="black"/>
</g>
</svg>
